<?xml version="1.0" standalone="no"?>
<!DOCTYPE svg PUBLIC "-//W3C//DTD SVG 20010904//EN"
 "http://www.w3.org/TR/2001/REC-SVG-20010904/DTD/svg10.dtd">
<svg version="1.0" xmlns="http://www.w3.org/2000/svg"
 width="700.000000pt" height="700.000000pt" viewBox="0 0 700.000000 700.000000"
 preserveAspectRatio="xMidYMid meet">
<metadata>
Created by potrace 1.14, written by Peter Selinger 2001-2017
</metadata>
<g transform="translate(0.000000,700.000000) scale(0.100000,-0.100000)"
fill="#000000" stroke="none">
<path d="M2050 6993 c-925 -52 -1592 -407 -1875 -998 -235 -489 -233 -1152 3
-1621 138 -274 358 -486 662 -639 235 -118 553 -196 920 -225 403 -32 519 -47
722 -91 483 -105 777 -311 843 -590 19 -82 19 -206 0 -288 -30 -126 -129 -277
-248 -380 -181 -155 -400 -247 -755 -317 -43 -8 -13 -21 65 -28 255 -21 546
-96 717 -184 308 -158 441 -417 382 -742 -55 -301 -280 -533 -677 -695 -215
-88 -585 -161 -934 -184 -75 -5 214 -9 763 -10 l882 -1 0 98 0 99 164 -42
c588 -153 1345 -196 1981 -115 406 52 718 152 960 308 97 62 233 201 280 285
113 205 125 460 29 657 -29 60 -56 94 -133 170 -200 197 -430 301 -1286 585
-291 96 -526 180 -579 206 -171 84 -240 176 -239 317 2 164 103 267 316 322
305 77 874 31 1442 -119 61 -16 111 -28 111 -28 23 25 332 533 326 538 -10 10
-207 63 -342 93 -240 53 -563 93 -924 116 -93 6 -171 12 -173 14 -2 1 45 6
104 10 240 14 515 73 703 149 191 78 319 165 452 306 97 103 167 215 214 339
72 193 68 101 71 1465 l4 1227 -500 0 -501 0 -2 -1187 -3 -1188 -22 -78 c-53
-185 -133 -289 -276 -358 -123 -59 -235 -79 -437 -80 -205 -1 -333 22 -457 82
-140 67 -216 161 -270 334 l-28 90 -3 1193 -3 1192 -499 0 -500 0 0 -95 c0
-52 -2 -95 -5 -95 -3 0 -74 20 -158 44 -254 74 -487 117 -731 136 -118 9 -421
11 -556 3z m1474 -2533 c69 -293 210 -501 446 -659 261 -175 548 -256 1055
-298 l90 -7 -120 -8 c-397 -25 -809 -135 -1032 -274 -183 -114 -304 -275 -344
-459 -18 -82 -15 -254 5 -339 44 -186 167 -342 381 -486 220 -147 535 -280
1178 -496 424 -142 539 -192 628 -271 74 -67 94 -111 94 -208 0 -211 -136
-306 -513 -362 -142 -20 -552 -23 -737 -4 -363 36 -721 108 -1040 208 l-90 29
-3 1337 -2 1337 -628 1 c-444 1 -592 4 -507 10 262 19 602 75 820 136 l100 28
3 308 c1 176 -2 307 -7 307 -5 0 -78 -20 -162 -44 -350 -100 -513 -126 -840
-133 -350 -8 -558 22 -766 109 -366 152 -540 505 -520 1053 14 369 103 619
287 803 166 167 394 264 710 302 110 13 424 13 548 -1 133 -14 313 -51 462
-95 69 -20 132 -38 140 -40 11 -3 62 78 175 274 l160 279 6 -1131 c5 -1038 7
-1137 23 -1206z"/>
<path d="M20 3340 c0 -88 3 -160 8 -160 4 0 40 13 80 30 366 149 873 257 1332
283 30 2 -277 4 -682 5 l-738 2 0 -160z"/>
<path d="M20 1969 l0 -1176 138 -36 c360 -93 682 -144 1057 -168 515 -32 898
42 1059 204 140 140 153 369 30 506 -143 159 -473 221 -1181 221 l-323 0 0
273 0 274 343 6 c468 10 685 35 859 100 192 73 302 204 301 359 -2 179 -138
311 -368 355 -112 21 -425 24 -565 4 -225 -31 -497 -96 -759 -181 l-123 -40
-234 238 -233 237 -1 -1176z"/>
<path d="M20 91 l0 -91 643 1 c444 1 602 4 512 10 -380 24 -641 62 -1127 166
l-28 6 0 -92z"/>
</g>
</svg>
